<svg width="48" height="48" viewBox="0 0 48 48" fill="none" xmlns="http://www.w3.org/2000/svg">
    <circle cx="24" cy="24" r="23.5" stroke="#273043"/>
    <path d="M22 28c0-1.66 0-3 3-3h4c3 0 3-1 3-3v-2c0-2 0-3-3-3h-1" stroke="#273043" stroke-linecap="round" stroke-linejoin="round"/>
    <path d="M24 14h-4a9.475 9.475 0 0 0 0 6h4c.65-1.95.65-4.05 0-6z" fill="#fff" stroke="#273043" stroke-linecap="round" stroke-linejoin="round"/>
    <path d="M20 14h-1c-2 0-3 1-3 3s1 3 3 3h1c-1-2-1-4 0-6zM25 14h-1c1 2 1 4 0 6h1c2 0 3-1 3-3s-1-3-3-3zM21.5 34h1c1.5 0 1.5-1 1.5-1.5v-3c0-.5 0-1.5-1.5-1.5h-1C20 28 20 29 20 29.5v3c0 .5 0 1.5 1.5 1.5z" fill="#fff" stroke="#273043" stroke-linecap="round" stroke-linejoin="round"/>
</svg>
