<svg width="24" height="24" viewBox="0 0 24 24" fill="none" xmlns="http://www.w3.org/2000/svg">
    <path fill-rule="evenodd" clip-rule="evenodd" d="M18.948 11.25a25.082 25.082 0 0 1-4.591-5.614l1.286-.772a23.584 23.584 0 0 0 5.49 6.282l.335.268.733.586-.733.585-.335.268a23.583 23.583 0 0 0-5.49 6.283l-1.286-.772a25.085 25.085 0 0 1 4.591-5.614H3v-1.5h15.948z" fill="#273043"/>
    <path d="M18.948 11.25V12h1.933l-1.427-1.304-.506.554zm-4.591-5.614-.386-.644-.643.386.386.643.643-.385zm1.286-.772.643-.386-.386-.643-.643.386.386.643zm5.49 6.282-.468.586.468-.586zm.335.268.469-.586-.469.586zm.733.586.468.585.732-.585-.732-.586-.468.586zm-.733.585L21 12l.468.585zm-.335.268.469.586-.469-.586zm-5.49 6.283-.386.643.643.386.386-.644-.643-.386zm-1.286-.772-.643-.386-.386.643.643.386.386-.643zm4.591-5.614.506.553L20.88 12h-1.933v.75zM3 12.75h-.75v.75H3v-.75zm0-1.5v-.75h-.75v.75H3zm16.454-.554A24.332 24.332 0 0 1 15 5.25l-1.286.771a25.833 25.833 0 0 0 4.728 5.782l1.012-1.107zm-4.711-4.417 1.286-.772-.772-1.286-1.286.771.772 1.287zM15 5.249a24.335 24.335 0 0 0 5.665 6.483l.937-1.172a22.837 22.837 0 0 1-5.316-6.082L15 5.25zm5.665 6.483L21 12l.937-1.172-.335-.268-.937 1.172zM21 12l.732.585.937-1.171-.732-.586L21 12zm.732-.586L21 12l.937 1.17.732-.585-.937-1.171zM21 12l-.335.268.937 1.171.335-.268L21 12zm-.335.268A24.335 24.335 0 0 0 15 18.75l1.286.771a22.837 22.837 0 0 1 5.316-6.082l-.937-1.171zm-4.636 6.224-1.286-.771-.772 1.286 1.286.772.772-1.287zM15 18.75a24.332 24.332 0 0 1 4.454-5.447l-1.012-1.107a25.832 25.832 0 0 0-4.728 5.782L15 18.75zM18.948 12H3v1.5h15.948V12zm-15.198.75v-1.5h-1.5v1.5h1.5zM3 12h15.948v-1.5H3V12z" fill="#273043"/>
</svg>
