<svg width="48" height="48" viewBox="0 0 48 48" fill="none" xmlns="http://www.w3.org/2000/svg">
    <circle cx="24" cy="24" r="23.5" stroke="#273043"/>
    <path d="m19.48 30.35 3.1 2.4c.4.4 1.3.6 1.9.6h3.8c1.2 0 2.5-.9 2.8-2.1l2.4-7.3c.5-1.4-.4-2.6-1.9-2.6h-4c-.6 0-1.1-.5-1-1.2l.5-3.2c.2-.9-.4-1.9-1.3-2.2-.8-.3-1.8.1-2.2.7l-4.1 6.1" fill="#fff"/>
    <path d="m19.48 30.35 3.1 2.4c.4.4 1.3.6 1.9.6h3.8c1.2 0 2.5-.9 2.8-2.1l2.4-7.3c.5-1.4-.4-2.6-1.9-2.6h-4c-.6 0-1.1-.5-1-1.2l.5-3.2c.2-.9-.4-1.9-1.3-2.2-.8-.3-1.8.1-2.2.7l-4.1 6.1" stroke="#273043" stroke-miterlimit="10"/>
    <path d="M14.38 30.35v-9.8c0-1.4.6-1.9 2-1.9h1c1.4 0 2 .5 2 1.9v9.8c0 1.4-.6 1.9-2 1.9h-1c-1.4 0-2-.5-2-1.9z" fill="#fff" stroke="#273043" stroke-linecap="round" stroke-linejoin="round"/>
</svg>
