<svg width="168" height="192" viewBox="0 0 168 192" fill="none" xmlns="http://www.w3.org/2000/svg">
    <g opacity=".1">
        <path d="M49.064 123.367h64.739l30.121 12.574-1.863 29.545-9.167 10.818-14.191 13.361a110.804 110.804 0 0 0-69.638 0l-13.01-13.361-10.454-9.702-1.703-30.661 25.166-12.574z" fill="#fff"/>
        <path d="M49.064 123.367h64.739l30.121 12.574-1.863 29.545-9.167 10.818-14.191 13.361a110.804 110.804 0 0 0-69.638 0l-13.01-13.361-10.454-9.702-1.703-30.661 25.166-12.574z" fill="#273043"/>
        <path d="M118.615 92.121H48.367v97.267a102.355 102.355 0 0 1 70.248 0V92.121z" stroke="#fff" stroke-width=".5" stroke-linejoin="round"/>
        <path d="m118.17 159.132-3.664-.785a148.012 148.012 0 0 0-61.306-.153l-4.485.938" stroke="#fff" stroke-width=".5" stroke-linecap="round" stroke-linejoin="round"/>
        <path d="m141.81 165.95 1.216-27.43-23.96 20.68.003 30.187 22.741-23.437z" fill="#fff"/>
        <path d="m141.81 165.95 1.216-27.43-23.96 20.68.003 30.187 22.741-23.437z" fill="#273043"/>
        <path d="m118.615 92.93 27.019-17.022-3.862 87.644a8.002 8.002 0 0 1-2.375 5.345l-20.782 20.489V92.93z" stroke="#fff" stroke-width=".5" stroke-linejoin="round"/>
        <path d="M143.027 135.626c-.001-13.461-1.001-38.667-10.352-35.479-9.35 3.188-14.012 42.547-14.012 59.728" stroke="#fff" stroke-width=".5" stroke-linecap="round" stroke-linejoin="round"/>
        <path d="m118.615 160.18 24.233-24.04" stroke="#fff" stroke-width=".5" stroke-linecap="round"/>
        <path d="M131.045 157.395v9.893" stroke="#fff" stroke-width=".5" stroke-linecap="round" stroke-linejoin="round"/>
        <path d="m25.09 166.259-1.32-29.901L47.916 159.2l-.002 30.186-22.824-23.127z" fill="#fff"/>
        <path d="m25.09 166.259-1.32-29.901L47.916 159.2l-.002 30.186-22.824-23.127z" fill="#273043"/>
        <path d="M48.367 92.93 21.35 75.908l3.861 87.644a8.003 8.003 0 0 0 2.376 5.345l20.781 20.489V92.93z" stroke="#fff" stroke-width=".5" stroke-linejoin="round"/>
        <path d="M24.148 137.678c.001-13.46.809-40.718 10.16-37.53 9.35 3.187 14.067 42.406 14.067 59.586M35.842 157.395v10.022" stroke="#fff" stroke-width=".5" stroke-linecap="round" stroke-linejoin="round"/>
        <path d="m48.367 160.18-24.597-24.2" stroke="#fff" stroke-width=".5"/>
        <path d="m73.636 35.723-23.607 64.494a160.679 160.679 0 0 0-38.044-20.226l-6.848-2.532a146.219 146.219 0 0 0 56.565-31.144l11.934-10.592z" fill="#fff"/>
        <path d="m73.636 35.723-23.607 64.494a160.679 160.679 0 0 0-38.044-20.226l-6.848-2.532a146.219 146.219 0 0 0 56.565-31.144l11.934-10.592z" fill="#273043"/>
        <path d="m73.636 35.723-23.607 64.494a160.679 160.679 0 0 0-38.044-20.226l-6.848-2.532a146.219 146.219 0 0 0 56.565-31.144l11.934-10.592z" stroke="#fff" stroke-width=".5" stroke-linejoin="round"/>
        <path d="m94.013 35.723 21.971 65.696a182.592 182.592 0 0 1 46.485-23.485l.394-.133A141.278 141.278 0 0 1 106.9 47.208L94.013 35.724z" fill="#fff"/>
        <path d="m94.013 35.723 21.971 65.696a182.592 182.592 0 0 1 46.485-23.485l.394-.133A141.278 141.278 0 0 1 106.9 47.208L94.013 35.724z" fill="#273043"/>
        <path d="m94.013 35.723 21.971 65.696a182.592 182.592 0 0 1 46.485-23.485l.394-.133A141.278 141.278 0 0 1 106.9 47.208L94.013 35.724z" stroke="#fff" stroke-width=".5" stroke-linejoin="round"/>
        <path d="M97.874 30.719h-27.98a297.858 297.858 0 0 1-26.079 72.844l-1.752 3.416a182.406 182.406 0 0 1 78.67-.691l3.265.691-1.598-3.257a292.428 292.428 0 0 1-24.526-73.003z" fill="#fff"/>
        <path d="M97.874 30.719h-27.98a297.858 297.858 0 0 1-26.079 72.844l-1.752 3.416a182.406 182.406 0 0 1 78.67-.691l3.265.691-1.598-3.257a292.428 292.428 0 0 1-24.526-73.003z" fill="#273043"/>
        <path d="M97.874 30.719h-27.98a297.858 297.858 0 0 1-26.079 72.844l-1.752 3.416a182.406 182.406 0 0 1 78.67-.691l3.265.691-1.598-3.257a292.428 292.428 0 0 1-24.526-73.003z" stroke="#fff" stroke-width=".5" stroke-linejoin="round"/>
        <path d="M85.17 12.98a1.368 1.368 0 0 0-2.269 0L76.4 22.62c-3.063 4.542-1.51 10.736 3.333 13.296a9.211 9.211 0 0 0 8.606 0c4.844-2.56 6.397-8.755 3.334-13.296l-6.503-9.64z" fill="#273043" stroke="#fff" stroke-width=".5" stroke-linejoin="round"/>
        <path d="m67.103 94.476 11.268-44.572M83.4 66.016v24.902M100.973 94.66 88.428 49.902M83.441 160.977v17.628M68.436 165.984v12.622M98.447 165.984v12.622M84.037 2.336v4.297M118.564 189.012l-6.909-54.588c-1.82-14.373-14.046-25.149-28.533-25.149v0c-14.817 0-27.209 11.257-28.628 26.006l-5.169 53.731" stroke="#fff" stroke-width=".5" stroke-linecap="round" stroke-linejoin="round"/>
        <path fill="#fff" d="M112.064 40.066H56.011v9.942h56.053z"/>
        <path fill="#273043" d="M112.064 40.066H56.011v9.942h56.053z"/>
        <path stroke="#fff" stroke-width=".5" stroke-linejoin="round" d="M112.064 40.066H56.011v9.942h56.053z"/>
        <path d="m102.553 50.266 26.383 29.855M64.767 50.266 39.633 79.79" stroke="#fff" stroke-width=".5" stroke-linecap="round" stroke-linejoin="round"/>
    </g>
</svg>
