<svg width="24" height="24" viewBox="0 0 24 24" fill="none" xmlns="http://www.w3.org/2000/svg">
    <path d="M4.902 10.204c-.907-1.58-1.36-2.37-1.357-3.017A2.4 2.4 0 0 1 4.74 5.125C5.3 4.8 6.21 4.8 8.031 4.8h5.818c1.186 0 1.78 0 2.288.256.51.257.863.734 1.569 1.687l1.778 2.4c1.02 1.376 1.53 2.065 1.53 2.857 0 .792-.51 1.48-1.53 2.857l-1.778 2.4c-.706.953-1.06 1.43-1.569 1.686-.509.257-1.102.257-2.288.257H8.03c-1.822 0-2.732 0-3.292-.325a2.4 2.4 0 0 1-1.194-2.063c-.003-.646.45-1.436 1.357-3.016.335-.584.503-.876.584-1.182a2.4 2.4 0 0 0 0-1.229c-.081-.306-.249-.598-.584-1.181z" fill="#34F6F2"/>
</svg>
