<svg width="25" height="25" viewBox="0 0 25 25" fill="none" xmlns="http://www.w3.org/2000/svg">
    <path d="m17.85 9.55-2.34 7.54c-.56 1.79-3.07 1.82-3.66.04l-.7-2.07c-.19-.57-.64-1.03-1.21-1.21l-2.08-.7c-1.77-.59-1.74-3.12.05-3.66l7.54-2.35c1.48-.45 2.87.94 2.4 2.41z" stroke="#273043" stroke-linecap="round" stroke-linejoin="round"/>
    <path d="m17.85 9.55-2.34 7.54c-.56 1.79-3.07 1.82-3.66.04l-.7-2.07c-.19-.57-.64-1.03-1.21-1.21l-2.08-.7c-1.77-.59-1.74-3.12.05-3.66l7.54-2.35c1.48-.45 2.87.94 2.4 2.41z" stroke="#fff" stroke-opacity=".4" stroke-linecap="round" stroke-linejoin="round"/>
    <path d="M9.5 22.5h6c5 0 7-2 7-7v-6c0-5-2-7-7-7h-6c-5 0-7 2-7 7v6c0 5 2 7 7 7z" stroke="#273043" stroke-linecap="round" stroke-linejoin="round"/>
    <path d="M9.5 22.5h6c5 0 7-2 7-7v-6c0-5-2-7-7-7h-6c-5 0-7 2-7 7v6c0 5 2 7 7 7z" stroke="#fff" stroke-opacity=".4" stroke-linecap="round" stroke-linejoin="round"/>
</svg>
