<svg width="48" height="48" viewBox="0 0 48 48" fill="none" xmlns="http://www.w3.org/2000/svg">
    <circle cx="24" cy="24" r="23.5" stroke="#273043"/>
    <path fill-rule="evenodd" clip-rule="evenodd" d="M14 24.88v-1.76c0-1.04.85-1.9 1.9-1.9 1.81 0 2.55-1.28 1.64-2.85-.52-.9-.21-2.07.7-2.59l1.73-.99c.79-.47 1.81-.19 2.28.6l.11.19c.9 1.57 2.38 1.57 3.29 0l.11-.19c.47-.79 1.49-1.07 2.28-.6l1.73.99c.91.52 1.22 1.69.7 2.59-.91 1.57-.17 2.85 1.64 2.85 1.04 0 1.9.85 1.9 1.9v1.76c0 1.04-.85 1.9-1.9 1.9-1.81 0-2.55 1.28-1.64 2.85.52.91.21 2.07-.7 2.59l-1.73.99c-.79.47-1.81.19-2.28-.6l-.11-.19c-.9-1.57-2.38-1.57-3.29 0l-.11.19c-.47.79-1.49 1.07-2.28.6l-1.73-.99a1.899 1.899 0 0 1-.7-2.59c.91-1.57.17-2.85-1.64-2.85-1.05 0-1.9-.86-1.9-1.9zM27 24a3 3 0 1 1-6 0 3 3 0 0 1 6 0z" fill="#fff" stroke="#273043" stroke-miterlimit="10" stroke-linecap="round" stroke-linejoin="round"/>
</svg>
