<svg width="183" height="40" viewBox="0 0 183 40" fill="none" xmlns="http://www.w3.org/2000/svg">
    <path d="M23.651 34.684a7.206 7.206 0 0 1-2.719-.506 7.192 7.192 0 0 1-2.194-1.444 6.861 6.861 0 0 1-1.462-2.156 6.963 6.963 0 0 1-.506-2.662c0-.95.169-1.832.506-2.644a6.588 6.588 0 0 1 1.462-2.156 6.711 6.711 0 0 1 2.213-1.444 6.931 6.931 0 0 1 2.7-.525c.688 0 1.356.094 2.006.281a6.752 6.752 0 0 1 1.819.769c.563.337 1.05.744 1.463 1.219l-1.313 1.35a4.678 4.678 0 0 0-1.781-1.332 5.324 5.324 0 0 0-2.194-.469c-.7 0-1.35.125-1.95.375-.588.25-1.1.6-1.538 1.05a4.767 4.767 0 0 0-1.03 1.557 5.302 5.302 0 0 0-.357 1.969c0 .7.119 1.35.356 1.95a4.832 4.832 0 0 0 2.625 2.624c.6.25 1.25.375 1.95.375a5.25 5.25 0 0 0 2.156-.45 4.909 4.909 0 0 0 1.744-1.312l1.294 1.313a7.525 7.525 0 0 1-1.5 1.218c-.55.338-1.15.6-1.8.788a7.333 7.333 0 0 1-1.95.262zm6.951-.206V21.353l1.875-.356v13.481h-1.875zm7.102.169c-.687 0-1.294-.119-1.819-.356a3.055 3.055 0 0 1-1.237-1.032c-.3-.437-.45-.944-.45-1.518 0-.9.344-1.607 1.031-2.12.688-.524 1.631-.787 2.831-.787a6.24 6.24 0 0 1 2.607.544v-1.012c0-.688-.2-1.2-.6-1.538-.388-.337-.963-.506-1.725-.506-.438 0-.894.069-1.37.206a9.568 9.568 0 0 0-1.593.6l-.694-1.406c.725-.338 1.4-.582 2.025-.732a7.496 7.496 0 0 1 1.894-.243c1.238 0 2.194.294 2.869.881.687.587 1.031 1.425 1.031 2.512v6.338h-1.837v-.825a4.458 4.458 0 0 1-1.37.75 5.013 5.013 0 0 1-1.593.244zm-1.706-2.944c0 .463.194.838.581 1.125.4.287.919.431 1.556.431.5 0 .957-.075 1.37-.225.424-.15.812-.381 1.162-.694v-1.612a3.896 3.896 0 0 0-1.144-.45c-.388-.1-.825-.15-1.313-.15-.687 0-1.23.144-1.63.431-.388.275-.582.656-.582 1.144zm11.948 2.963c-.825 0-1.6-.12-2.325-.357a5.738 5.738 0 0 1-1.856-1.05l1.03-1.237c.488.387.988.687 1.5.9.526.2 1.057.3 1.595.3.675 0 1.225-.132 1.65-.394.425-.263.637-.606.637-1.031 0-.35-.125-.625-.375-.825-.25-.2-.637-.338-1.162-.413l-1.725-.244c-.95-.137-1.663-.43-2.138-.88-.475-.45-.712-1.05-.712-1.8 0-.576.156-1.076.468-1.5.313-.438.75-.776 1.313-1.013.562-.25 1.219-.375 1.969-.375.687 0 1.35.1 1.987.3.638.2 1.25.512 1.838.937l-.957 1.238a6.308 6.308 0 0 0-1.537-.769 4.656 4.656 0 0 0-1.481-.244c-.575 0-1.038.125-1.388.375-.35.238-.525.55-.525.938 0 .35.119.625.356.825.25.187.657.319 1.22.393l1.724.244c.95.138 1.669.431 2.156.881.488.438.732 1.032.732 1.782 0 .575-.175 1.093-.525 1.556-.35.45-.825.806-1.425 1.069-.6.262-1.282.394-2.044.394zm8.716 0c-.825 0-1.6-.12-2.325-.357a5.738 5.738 0 0 1-1.857-1.05l1.032-1.237c.487.387.987.687 1.5.9.525.2 1.056.3 1.593.3.675 0 1.225-.132 1.65-.394.425-.263.638-.606.638-1.031 0-.35-.125-.625-.375-.825-.25-.2-.638-.338-1.163-.413l-1.725-.244c-.95-.137-1.662-.43-2.137-.88-.475-.45-.713-1.05-.713-1.8 0-.576.157-1.076.47-1.5.312-.438.75-.776 1.312-1.013.562-.25 1.218-.375 1.968-.375.688 0 1.35.1 1.988.3.637.2 1.25.512 1.837.937l-.956 1.238a6.309 6.309 0 0 0-1.537-.769 4.657 4.657 0 0 0-1.482-.244c-.575 0-1.037.125-1.387.375-.35.238-.525.55-.525.938 0 .35.119.625.356.825.25.187.656.319 1.219.393l1.725.244c.95.138 1.669.431 2.156.881.488.438.731 1.032.731 1.782 0 .575-.175 1.093-.525 1.556-.35.45-.825.806-1.425 1.069-.6.262-1.28.394-2.043.394zm5.434-.188v-9.544h1.875v9.544h-1.875zm.938-11.081a1.1 1.1 0 0 1-.806-.338 1.163 1.163 0 0 1-.338-.825c0-.325.112-.594.337-.806a1.1 1.1 0 0 1 .807-.338c.325 0 .6.113.825.338.225.212.337.481.337.806 0 .313-.112.588-.337.825-.225.225-.5.338-.825.338zm7.627 11.25a4.858 4.858 0 0 1-2.494-.657 4.87 4.87 0 0 1-1.781-1.78c-.425-.75-.638-1.588-.638-2.513 0-.925.219-1.756.656-2.494a4.914 4.914 0 0 1 1.763-1.781 4.755 4.755 0 0 1 2.494-.675c.725 0 1.418.137 2.081.412a5.081 5.081 0 0 1 1.744 1.163l-1.163 1.294c-.362-.4-.768-.7-1.218-.9-.45-.2-.92-.3-1.407-.3-.575 0-1.1.143-1.575.43a3.147 3.147 0 0 0-1.106 1.182 3.405 3.405 0 0 0-.412 1.669c0 .612.137 1.169.412 1.669.275.5.65.9 1.125 1.2a3.018 3.018 0 0 0 1.594.43c.487 0 .944-.093 1.368-.28.425-.2.826-.488 1.2-.863l1.144 1.2c-.5.513-1.081.906-1.743 1.181a5.193 5.193 0 0 1-2.044.413zM113.405 34.684a6.935 6.935 0 0 1-2.7-.525 6.96 6.96 0 0 1-2.175-1.444 6.86 6.86 0 0 1-1.462-2.156 6.699 6.699 0 0 1-.525-2.643c0-.938.168-1.813.506-2.625a6.587 6.587 0 0 1 1.462-2.157 6.802 6.802 0 0 1 2.175-1.462 6.796 6.796 0 0 1 2.682-.525c1.037 0 2.018.2 2.943.6.925.4 1.707.956 2.344 1.669l-1.35 1.312a4.684 4.684 0 0 0-1.762-1.294 5.2 5.2 0 0 0-2.175-.469c-.688 0-1.325.125-1.913.375-.575.25-1.081.6-1.519 1.05a4.774 4.774 0 0 0-1.031 1.557 5.313 5.313 0 0 0-.356 1.969c0 .7.119 1.356.356 1.968.25.6.594 1.125 1.031 1.575a4.83 4.83 0 0 0 3.469 1.425c.775 0 1.475-.162 2.1-.487a4.233 4.233 0 0 0 1.556-1.331 4.24 4.24 0 0 0 .732-1.932h-4.369V27.41h6.431v.675c0 .938-.162 1.806-.487 2.607-.325.8-.782 1.5-1.369 2.1a6.152 6.152 0 0 1-2.044 1.406 6.615 6.615 0 0 1-2.55.487zm11.307-.037c-.687 0-1.294-.119-1.819-.356a3.053 3.053 0 0 1-1.237-1.032c-.3-.437-.45-.944-.45-1.518 0-.9.344-1.607 1.031-2.12.688-.524 1.631-.787 2.831-.787.938 0 1.807.181 2.607.544v-1.012c0-.688-.2-1.2-.6-1.538-.388-.337-.963-.506-1.725-.506-.438 0-.894.069-1.369.206a9.586 9.586 0 0 0-1.594.6l-.694-1.406c.725-.338 1.4-.582 2.025-.732a7.501 7.501 0 0 1 1.894-.243c1.238 0 2.194.294 2.869.881.687.587 1.031 1.425 1.031 2.512v6.338h-1.837v-.825a4.465 4.465 0 0 1-1.369.75 5.016 5.016 0 0 1-1.594.244zm-1.706-2.944c0 .463.194.838.581 1.125.4.287.919.431 1.556.431.5 0 .957-.075 1.369-.225.425-.15.813-.381 1.163-.694v-1.612a3.903 3.903 0 0 0-1.144-.45c-.388-.1-.825-.15-1.313-.15-.687 0-1.231.144-1.631.431-.387.275-.581.656-.581 1.144zm8.104 2.775V33.09l5.363-6.543h-5.307v-1.613h7.65v1.369l-5.362 6.562h5.456v1.613h-7.8zm13.799.169c-.938 0-1.788-.219-2.55-.657a5.016 5.016 0 0 1-1.8-1.78c-.438-.75-.657-1.588-.657-2.513 0-.913.213-1.738.638-2.475.425-.75 1-1.344 1.725-1.782a4.494 4.494 0 0 1 2.419-.675c.887 0 1.675.226 2.362.675a4.636 4.636 0 0 1 1.631 1.8c.413.75.619 1.6.619 2.55v.526h-7.519c.1.524.294.993.582 1.406.3.412.675.737 1.125.975.462.237.962.356 1.5.356.462 0 .906-.069 1.331-.206.437-.15.8-.363 1.087-.638l1.2 1.181a6.474 6.474 0 0 1-1.743.957c-.588.2-1.238.3-1.95.3zm-3.113-5.738h5.644c-.075-.5-.25-.937-.525-1.312a2.745 2.745 0 0 0-.994-.9 2.491 2.491 0 0 0-1.275-.338c-.475 0-.912.106-1.312.319-.4.212-.738.512-1.013.9a3.252 3.252 0 0 0-.525 1.331zm9.286 5.569V21.353l1.875-.356v4.837c.8-.7 1.769-1.05 2.906-1.05.9 0 1.713.219 2.438.657a4.814 4.814 0 0 1 1.743 1.762c.425.738.638 1.569.638 2.494 0 .925-.219 1.762-.656 2.512a4.816 4.816 0 0 1-1.744 1.763c-.725.437-1.544.656-2.456.656a4.947 4.947 0 0 1-1.538-.244 5.061 5.061 0 0 1-1.35-.731v.825h-1.856zm4.537-1.481c.613 0 1.157-.144 1.632-.431a3.237 3.237 0 0 0 1.162-1.163c.288-.5.431-1.063.431-1.688s-.143-1.187-.431-1.687a3.193 3.193 0 0 0-1.162-1.181c-.475-.288-1.019-.431-1.632-.431-.537 0-1.037.1-1.5.3-.462.2-.85.48-1.162.843v4.313c.312.35.7.625 1.162.825.475.2.975.3 1.5.3zm11.389 1.669a4.996 4.996 0 0 1-2.531-.657 4.865 4.865 0 0 1-1.781-1.781c-.438-.75-.656-1.588-.656-2.513 0-.924.218-1.762.656-2.512a4.865 4.865 0 0 1 1.781-1.781 4.888 4.888 0 0 1 2.531-.675c.938 0 1.782.225 2.532.675a4.872 4.872 0 0 1 1.781 1.781c.437.75.656 1.588.656 2.512 0 .925-.219 1.763-.656 2.513a4.872 4.872 0 0 1-1.781 1.781c-.75.438-1.594.657-2.532.657zm0-1.65c.588 0 1.119-.144 1.594-.432.475-.3.85-.7 1.125-1.2s.413-1.062.413-1.687c0-.613-.144-1.163-.432-1.65-.275-.5-.65-.9-1.125-1.2-.462-.3-.987-.45-1.575-.45-.587 0-1.118.15-1.593.45-.463.3-.838.7-1.125 1.2a3.3 3.3 0 0 0-.413 1.65c0 .625.138 1.187.413 1.687.275.5.65.9 1.125 1.2a3.016 3.016 0 0 0 1.593.431zm10.024 1.65c-.825 0-1.6-.12-2.325-.357a5.737 5.737 0 0 1-1.857-1.05l1.032-1.237c.487.387.987.687 1.5.9.525.2 1.056.3 1.593.3.675 0 1.225-.132 1.65-.394.425-.263.638-.606.638-1.031 0-.35-.125-.625-.375-.825-.25-.2-.638-.338-1.163-.413L176 30.315c-.95-.137-1.662-.43-2.137-.88-.475-.45-.713-1.05-.713-1.8 0-.576.157-1.076.469-1.5.313-.438.75-.776 1.313-1.013.562-.25 1.218-.375 1.968-.375.688 0 1.35.1 1.988.3.637.2 1.25.512 1.837.937l-.956 1.238a6.306 6.306 0 0 0-1.537-.769 4.663 4.663 0 0 0-1.482-.244c-.575 0-1.037.125-1.387.375-.35.238-.525.55-.525.938 0 .35.119.625.356.825.25.187.656.319 1.219.393l1.725.244c.95.138 1.669.431 2.156.881.488.438.731 1.032.731 1.782 0 .575-.175 1.093-.525 1.556-.35.45-.825.806-1.425 1.069-.6.262-1.281.394-2.043.394z" fill="#273043"/>
    <path d="M85.549 26.007h10.115l4.707 1.965-.291 4.616-1.433 1.69-2.217 2.088a17.313 17.313 0 0 0-10.881 0l-2.033-2.087-1.633-1.516-.266-4.791 3.932-1.965z" fill="#BDB3B4"/>
    <path d="M85.549 26.007h10.115l4.707 1.965-.291 4.616-1.433 1.69-2.217 2.088a17.313 17.313 0 0 0-10.881 0l-2.033-2.087-1.633-1.516-.266-4.791 3.932-1.965z" fill="#ECE9E9"/>
    <path d="M96.416 21.125H85.44v15.198a15.992 15.992 0 0 1 10.976 0V21.125z" stroke="#273043" stroke-width=".625" stroke-linejoin="round"/>
    <path d="m100.218 27.987-3.824-1.98h-10.85l-3.888 1.971M96.394 29.132l-1.79-.21a31.251 31.251 0 0 0-7.27 0l-1.79.21" stroke="#273043" stroke-width=".313" stroke-linecap="round" stroke-linejoin="round"/>
    <path d="m96.347 31.596-.573-.123a23.124 23.124 0 0 0-9.579-.024l-.7.147" stroke="#273043" stroke-width=".625" stroke-linecap="round" stroke-linejoin="round"/>
    <path d="m95.329 27.735 1.08 8.53v-13.43H85.365l.224 13.43.807-8.396a4.494 4.494 0 0 1 8.931-.134z" fill="#273043"/>
    <path d="m100.04 32.661.19-4.286-3.743 3.231v4.717l3.553-3.662z" fill="#BDB3B4"/>
    <path d="m100.04 32.661.19-4.286-3.743 3.231v4.717l3.553-3.662z" fill="#ECE9E9"/>
    <path d="M98.613 22.38c1.461-.499 1.654 3.424 1.654 5.527l.398-7.984-3.994 2.165.269.829h-.453v8.407c0-2.684.665-8.447 2.126-8.945z" fill="#273043"/>
    <path d="m96.416 21.252 4.222-2.66-.604 13.695a1.25 1.25 0 0 1-.37.835l-3.248 3.201V21.252z" stroke="#273043" stroke-width=".625" stroke-linejoin="round"/>
    <path d="M100.23 27.923c0-2.103-.156-6.041-1.617-5.543-1.461.498-2.19 6.648-2.19 9.332" stroke="#273043" stroke-width=".625" stroke-linecap="round" stroke-linejoin="round"/>
    <path d="m96.416 31.76 3.786-3.757" stroke="#273043" stroke-width=".625" stroke-linecap="round"/>
    <path d="M98.358 31.324v1.546" stroke="#273043" stroke-width=".313" stroke-linecap="round" stroke-linejoin="round"/>
    <path d="m81.803 32.71-.206-4.673 3.773 3.57v4.716l-3.567-3.614z" fill="#BDB3B4"/>
    <path d="m81.803 32.71-.206-4.673 3.773 3.57v4.716l-3.567-3.614z" fill="#ECE9E9"/>
    <path d="M83.243 22.38c-1.461-.499-1.646 3.436-1.646 5.54l-.384-8.121 3.959 2.181-.468.937h.666v8.407c0-2.684-.666-8.447-2.127-8.945z" fill="#273043"/>
    <path d="m85.44 21.252-4.222-2.66.604 13.695c.014.315.146.613.371.835l3.247 3.201V21.252z" stroke="#273043" stroke-width=".625" stroke-linejoin="round"/>
    <path d="M81.656 28.244c0-2.104.126-6.363 1.587-5.864 1.461.498 2.198 6.626 2.198 9.31" stroke="#273043" stroke-width=".625" stroke-linecap="round" stroke-linejoin="round"/>
    <path d="M83.483 31.324v1.566" stroke="#273043" stroke-width=".313" stroke-linecap="round" stroke-linejoin="round"/>
    <path d="m85.44 31.76-3.843-3.782" stroke="#273043" stroke-width=".625"/>
    <path d="M89.388 12.313 85.7 22.39a25.107 25.107 0 0 0-5.945-3.16l-1.07-.396a22.845 22.845 0 0 0 8.838-4.866l1.865-1.655z" fill="#BDB3B4"/>
    <path d="M89.388 12.313 85.7 22.39a25.107 25.107 0 0 0-5.945-3.16l-1.07-.396a22.845 22.845 0 0 0 8.838-4.866l1.865-1.655z" fill="#ECE9E9"/>
    <path d="M89.388 12.313 85.7 22.39a25.107 25.107 0 0 0-5.945-3.16l-1.07-.396a22.845 22.845 0 0 0 8.838-4.866l1.865-1.655z" stroke="#273043" stroke-width=".625" stroke-linejoin="round"/>
    <path d="m92.572 12.313 3.433 10.265a28.528 28.528 0 0 1 7.263-3.67l.062-.02a22.074 22.074 0 0 1-8.744-4.78l-2.014-1.795z" fill="#BDB3B4"/>
    <path d="m92.572 12.313 3.433 10.265a28.528 28.528 0 0 1 7.263-3.67l.062-.02a22.074 22.074 0 0 1-8.744-4.78l-2.014-1.795z" fill="#ECE9E9"/>
    <path d="m92.572 12.313 3.433 10.265a28.528 28.528 0 0 1 7.263-3.67l.062-.02a22.074 22.074 0 0 1-8.744-4.78l-2.014-1.795z" stroke="#273043" stroke-width=".625" stroke-linejoin="round"/>
    <path d="M93.175 11.531h-4.371a46.542 46.542 0 0 1-4.075 11.382l-.274.534c4.04-.93 8.236-.967 12.292-.108l.51.108-.25-.51a45.695 45.695 0 0 1-3.832-11.406z" fill="#BDB3B4"/>
    <path d="M93.175 11.531h-4.371a46.542 46.542 0 0 1-4.075 11.382l-.274.534c4.04-.93 8.236-.967 12.292-.108l.51.108-.25-.51a45.695 45.695 0 0 1-3.832-11.406z" fill="#ECE9E9"/>
    <path d="M93.175 11.531h-4.371a46.542 46.542 0 0 1-4.075 11.382l-.274.534c4.04-.93 8.236-.967 12.292-.108l.51.108-.25-.51a45.695 45.695 0 0 1-3.832-11.406z" stroke="#273043" stroke-width=".625" stroke-linejoin="round"/>
    <path d="M91.19 8.76a.214.214 0 0 0-.354 0l-1.016 1.506a1.44 1.44 0 0 0 1.866 2.077c.756-.4.999-1.368.52-2.078L91.19 8.76z" fill="#273043"/>
    <path d="m88.367 21.493 1.761-6.964M90.914 17.046v3.891M93.66 21.522l-1.96-6.994M90.92 31.883v2.755M88.576 32.666v1.972M93.265 32.666v1.972M91.013 7.096v.672" stroke="#273043" stroke-width=".313" stroke-linecap="round" stroke-linejoin="round"/>
    <path d="m96.408 36.264-1.08-8.529a4.494 4.494 0 0 0-4.458-3.93v0a4.494 4.494 0 0 0-4.473 4.064l-.807 8.395" stroke="#273043" stroke-width=".625" stroke-linecap="round" stroke-linejoin="round"/>
    <path fill="#BDB3B4" d="M95.393 12.992h-8.758v1.553h8.758z"/>
    <path fill="#ECE9E9" d="M95.393 12.992h-8.758v1.553h8.758z"/>
    <path stroke="#273043" stroke-width=".313" stroke-linejoin="round" d="M95.393 12.992h-8.758v1.553h8.758z"/>
    <path d="m93.906 14.585 4.123 4.665M88.002 14.585l-3.927 4.613" stroke="#273043" stroke-width=".313" stroke-linecap="round" stroke-linejoin="round"/>
    <path opacity=".5" fill-rule="evenodd" clip-rule="evenodd" d="M91.308 4.427c-10.3 0-18.416 7.631-19.905 17.304.723-10.363 9.358-18.545 19.905-18.545 9.269 0 17.062 6.32 19.304 14.886-3.1-10.147-11.622-13.645-19.304-13.645z" fill="#273043"/>
    <path fill-rule="evenodd" clip-rule="evenodd" d="M91.34 1.428c-11.43 0-20.436 8.88-22.089 19.616C70.053 9.543 79.636.462 91.341.462c10.287 0 18.935 7.015 21.423 16.521-3.439-11.26-12.897-15.555-21.423-15.555z" fill="#273043"/>
</svg>
