<svg width="48" height="48" viewBox="0 0 48 48" fill="none" xmlns="http://www.w3.org/2000/svg">
    <circle cx="24" cy="24" r="23.5" stroke="#273043"/>
    <path d="M20.5 31H20c-4 0-6-1-6-6v-5c0-4 2-6 6-6h8c4 0 6 2 6 6v5c0 4-2 6-6 6h-.5c-.31 0-.61.15-.8.4l-1.5 2c-.66.88-1.74.88-2.4 0l-1.5-2c-.16-.22-.53-.4-.8-.4z" stroke="#292D32" stroke-miterlimit="10" stroke-linecap="round" stroke-linejoin="round"/>
    <path d="M19 20h10M19 25h6" stroke="#292D32" stroke-linecap="round" stroke-linejoin="round"/>
</svg>
