<svg xmlns="http://www.w3.org/2000/svg" width="64" height="64" fill="none" viewBox="0 0 64 64">
    <rect width="62" height="62" x="1" y="63" stroke="#273043" stroke-width="2" rx="31" transform="rotate(-90 1 63)"/>
    <mask id="aui0ppvd9a" fill="#fff">
        <path fill-rule="evenodd" d="M39.264 31c-2.39-2.183-4.453-4.703-6.122-7.485l1.715-1.03c1.923 3.206 4.402 6.042 7.32 8.377l.448.358.976.78-.976.781-.447.358c-2.919 2.334-5.398 5.17-7.32 8.376l-1.715-1.03c1.669-2.781 3.732-5.302 6.121-7.485H18v-2h21.264z" clip-rule="evenodd"/>
    </mask>
    <path fill="#273043" fill-rule="evenodd" d="M39.264 31c-2.39-2.183-4.453-4.703-6.122-7.485l1.715-1.03c1.923 3.206 4.402 6.042 7.32 8.377l.448.358.976.78-.976.781-.447.358c-2.919 2.334-5.398 5.17-7.32 8.376l-1.715-1.03c1.669-2.781 3.732-5.302 6.121-7.485H18v-2h21.264z" clip-rule="evenodd"/>
    <path fill="#273043" d="M39.264 31v1h2.577l-1.903-1.738-.675.738zm-6.122-7.485l-.514-.858-.858.515.515.857.858-.514zm1.715-1.03l.858-.514-.515-.857-.857.514.514.858zm7.32 8.377l.626-.78-.625.78zm.448.358L42 32l.625-.78zm.976.78l.624.781.977-.78-.977-.781-.624.78zm-.976.781l.624.781-.624-.78zm-.447.358l-.625-.781.625.78zm-7.32 8.376l-.515.857.857.515.515-.858-.858-.514zm-1.715-1.03l-.858-.514-.514.858.857.514.514-.857zM39.264 33l.675.738L41.842 32h-2.578v1zM18 33h-1v1h1v-1zm0-2v-1h-1v1h1zm21.938-.738C37.62 28.144 35.619 25.699 34 23l-1.715 1.03c1.719 2.864 3.843 5.46 6.304 7.708l1.349-1.476zm-6.281-5.89l1.715-1.029-1.029-1.715-1.715 1.03 1.029 1.714zM34 23c1.984 3.307 4.542 6.234 7.553 8.643l1.25-1.562c-2.826-2.26-5.226-5.007-7.088-8.11L34 23.001zm7.553 8.643L42 32l1.25-1.561-.447-.358-1.25 1.562zM42 32l.976.781 1.25-1.561-.977-.781L42 32zm.976-.78L42 32l1.25 1.562.975-.78-1.249-1.562zM42 32l-.447.358 1.25 1.562.446-.358L42 32zm-.447.358C38.542 34.767 35.984 37.694 34 41l1.715 1.03c1.862-3.104 4.262-5.85 7.088-8.11l-1.25-1.562zm-6.181 8.3l-1.715-1.03-1.029 1.715 1.715 1.03 1.029-1.716zM34 41c1.62-2.699 3.62-5.144 5.939-7.262l-1.349-1.477c-2.461 2.249-4.586 4.845-6.305 7.71L34 41.001zm5.264-9H18v2h21.264v-2zM19 33v-2h-2v2h2zm-1-1h21.264v-2H18v2z" mask="url(#aui0ppvd9a)"/>
</svg>
