<svg width="48" height="48" viewBox="0 0 48 48" fill="none" xmlns="http://www.w3.org/2000/svg">
    <circle cx="24" cy="24" r="23.5" stroke="#273043"/>
    <path d="M33 20.5V29c0 3-1.5 5-5 5h-8c-3.5 0-5-2-5-5v-8.5c0-3 1.5-5 5-5h8c3.5 0 5 2 5 5z" fill="#fff" stroke="#273043" stroke-miterlimit="10" stroke-linecap="round" stroke-linejoin="round"/>
    <path d="M17.9 27v0a11.324 11.324 0 0 0 12.2 0v0M19.2 22.2v0a2.121 2.121 0 0 1 3 0v0M25.8 22.2v0a2.121 2.121 0 0 1 3 0v0" stroke="#273043" stroke-miterlimit="10" stroke-linecap="round" stroke-linejoin="round"/>
</svg>
